# xmcd CD database file
#
# Track frame offsets:
#	150
#	37337
#	72947
#	111987
#	149537
#	189262
#
# Disc length: 2989 seconds
#
# Revision: 0
# Processed by: cddbd v1.4PL0 Copyright (c) Steve Scherf et al.
# Submitted via: CDex 1.50beta9
#
DISCID=5b0bab06
DTITLE=Chen Da-wei - Three Purities
DYEAR=1990
DGENRE=New Age
TTITLE0=Three Purities
TTITLE1=Huang Chuan Chai
TTITLE2=Sigh in Grief
TTITLE3=The Combined Performance
TTITLE4=The Praise of Flying Wild Geese
TTITLE5=The Tune of Plum Blossom
EXTD=YEAR: 1990
EXTT0=
EXTT1=
EXTT2=
EXTT3=
EXTT4=
EXTT5=
PLAYORDER=
